<?xml version="1.0" standalone="no"?>
<!DOCTYPE svg PUBLIC "-//W3C//DTD SVG 20010904//EN"
 "http://www.w3.org/TR/2001/REC-SVG-20010904/DTD/svg10.dtd">
<svg version="1.0" xmlns="http://www.w3.org/2000/svg"
 width="256.000000pt" height="256.000000pt" viewBox="0 0 256.000000 256.000000"
 preserveAspectRatio="xMidYMid meet">

<g transform="translate(0.000000,256.000000) scale(0.100000,-0.100000)"
fill="#000000" stroke="none">
<path d="M76 1700 c-106 -286 -93 -637 33 -930 65 -151 134 -252 261 -381 195
-199 395 -308 670 -366 117 -24 363 -24 480 0 397 84 719 328 896 680 93 184
134 358 134 573 0 152 -18 269 -62 401 l-31 93 -213 0 -214 0 0 -425 c0 -417
0 -425 20 -425 35 0 54 -43 46 -108 -7 -66 -28 -100 -77 -125 -32 -16 -83 -17
-754 -15 -676 3 -722 4 -747 21 -37 26 -58 76 -58 140 0 60 16 87 51 87 18 0
19 12 19 425 l0 425 -214 0 -214 0 -26 -70z"/>
<path d="M570 1345 l0 -425 210 0 210 0 28 -50 27 -50 234 3 235 2 26 45 26
45 207 3 207 2 0 425 c0 418 0 425 -20 425 -19 0 -20 -8 -22 -392 l-3 -393
-655 0 -655 0 -3 393 -2 392 -25 0 -25 0 0 -425z"/>
<path d="M660 1515 l0 -235 205 0 204 0 27 46 c26 44 26 47 11 74 -26 43 -21
77 13 112 27 26 36 30 67 25 51 -9 78 -38 78 -86 0 -46 -24 -77 -66 -86 -22
-5 -37 -21 -62 -63 l-33 -57 -222 -3 -222 -2 0 -105 0 -105 620 0 620 0 0 153
c0 85 -3 188 -6 230 l-7 77 -218 0 -217 0 -26 -47 c-25 -44 -25 -47 -9 -65 26
-29 20 -88 -12 -115 -58 -50 -145 -13 -145 62 0 43 36 85 74 85 15 0 27 7 30
18 4 10 20 39 36 65 l30 47 230 0 230 0 0 105 0 105 -615 0 -615 0 0 -235z"/>
<path d="M1150 1475 c-26 -32 13 -81 48 -59 34 22 22 74 -18 74 -10 0 -23 -7
-30 -15z"/>
<path d="M1322 1358 c-36 -36 6 -91 46 -62 26 18 28 37 6 58 -19 19 -36 20
-52 4z"/>
<path d="M510 817 c0 -43 5 -58 23 -75 l23 -22 723 0 722 0 24 25 c20 19 25
34 25 75 l0 50 -229 0 -228 0 -31 -50 -31 -50 -248 0 c-136 0 -253 4 -259 8
-6 4 -21 26 -34 50 l-24 42 -228 0 -228 0 0 -53z m147 -13 c8 -21 -13 -42 -28
-27 -13 13 -5 43 11 43 6 0 13 -7 17 -16z m80 0 c8 -21 -13 -42 -28 -27 -13
13 -5 43 11 43 6 0 13 -7 17 -16z m82 2 c9 -10 8 -16 -4 -26 -19 -16 -41 1
-32 24 8 20 21 20 36 2z m959 -9 c4 -20 -25 -34 -40 -19 -15 15 -1 44 19 40
10 -2 19 -11 21 -21z m79 7 c9 -23 -13 -40 -32 -24 -12 10 -13 16 -4 26 15 18
28 18 36 -2z m80 0 c8 -21 -13 -42 -28 -27 -13 13 -5 43 11 43 6 0 13 -7 17
-16z"/>
</g>
</svg>
