<?xml version="1.0" standalone="no"?>
<!DOCTYPE svg PUBLIC "-//W3C//DTD SVG 20010904//EN"
 "http://www.w3.org/TR/2001/REC-SVG-20010904/DTD/svg10.dtd">
<svg version="1.0" xmlns="http://www.w3.org/2000/svg"
 width="327.000000pt" height="320.000000pt" viewBox="0 0 327.000000 320.000000"
 preserveAspectRatio="xMidYMid meet">

<g transform="translate(0.000000,320.000000) scale(0.100000,-0.100000)"
fill="#000000" stroke="none">
<path d="M803 2864 c-33 -17 -63 -66 -63 -106 0 -30 33 -84 61 -99 12 -6 43
-11 69 -10 l46 1 132 -134 132 -133 0 -71 0 -72 -59 0 c-71 0 -114 -26 -95
-57 10 -17 42 -18 505 -23 455 -5 496 -6 521 -23 14 -10 30 -26 35 -35 4 -9
10 -239 13 -511 5 -463 6 -495 23 -505 31 -19 57 24 57 95 l0 59 163 0 163 0
22 -30 c45 -60 129 -62 184 -3 33 35 33 111 -1 147 -38 41 -90 52 -135 31 -21
-10 -44 -29 -53 -41 -15 -24 -18 -24 -179 -24 l-164 0 0 40 0 40 88 0 c86 0
112 8 112 36 0 32 -31 44 -116 44 l-84 0 0 40 0 40 311 2 c284 3 313 5 323 21
8 12 8 22 0 35 -10 15 -39 17 -323 20 l-311 2 0 40 0 40 84 0 c85 0 116 12
116 44 0 28 -26 36 -112 36 l-88 0 0 40 0 40 65 0 c36 0 82 7 103 15 22 10 90
69 169 147 124 124 133 131 163 125 37 -8 86 11 115 43 14 16 20 36 20 70 0
40 -5 54 -29 79 -78 81 -196 31 -196 -83 l0 -52 -133 -132 -134 -132 -71 0
-72 0 0 58 c-1 133 -89 221 -222 222 l-58 0 0 163 0 163 30 22 c60 45 62 129
3 184 -35 33 -111 33 -147 -1 -57 -53 -55 -139 5 -182 l29 -20 0 -165 0 -164
-40 0 -40 0 0 81 c0 88 -10 119 -40 119 -30 0 -40 -31 -40 -119 l0 -81 -40 0
-40 0 0 301 c0 188 -4 308 -10 320 -6 10 -19 19 -30 19 -11 0 -24 -9 -30 -19
-6 -12 -10 -132 -10 -320 l0 -301 -40 0 -40 0 0 81 c0 88 -10 119 -40 119 -30
0 -40 -31 -40 -119 l0 -81 -40 0 -40 0 0 58 c0 108 -10 125 -157 274 -128 129
-135 138 -130 168 8 36 -11 86 -41 113 -29 26 -90 31 -129 11z m91 -86 c22
-35 -27 -74 -59 -48 -18 15 -20 56 -2 64 22 9 50 1 61 -16z m996 -73 c26 -32
-13 -81 -47 -59 -35 22 -23 74 17 74 10 0 23 -7 30 -15z m845 -419 c0 -36 -27
-56 -52 -40 -40 25 -20 77 26 72 21 -2 26 -8 26 -32z m-81 -988 c8 -13 8 -23
0 -35 -28 -45 -89 -9 -64 38 13 24 48 22 64 -3z"/>
<path d="M920 2110 c-10 -6 -16 -32 -18 -79 l-4 -71 -163 0 -163 0 -16 25
c-41 63 -129 69 -182 14 -39 -41 -42 -114 -5 -153 53 -57 139 -54 183 5 l22
29 163 0 163 0 0 -40 0 -39 -91 -3 c-75 -2 -94 -6 -103 -20 -8 -13 -8 -23 0
-35 9 -15 28 -19 103 -21 l91 -3 0 -39 0 -40 -301 0 c-188 0 -308 -4 -320 -10
-25 -14 -25 -46 0 -60 12 -6 132 -10 320 -10 l301 0 0 -40 0 -39 -91 -3 c-75
-2 -94 -6 -103 -20 -8 -13 -8 -23 0 -35 9 -15 28 -19 103 -21 l91 -3 0 -39 0
-40 -57 0 c-109 0 -126 -10 -275 -157 -129 -128 -138 -135 -168 -130 -64 13
-140 -48 -140 -111 0 -63 59 -122 123 -122 63 0 129 88 107 144 -8 21 5 36
129 160 l138 136 71 0 72 0 0 -57 c1 -134 89 -222 223 -223 l57 0 0 -164 0
-164 -26 -17 c-33 -22 -57 -79 -50 -120 4 -17 20 -45 37 -61 41 -39 114 -42
153 -5 57 53 55 139 -5 182 l-29 20 0 165 0 164 40 0 40 0 0 -81 c0 -88 10
-119 40 -119 30 0 40 31 40 119 l0 81 40 0 40 0 0 -301 c0 -188 4 -308 10
-320 14 -25 46 -25 60 0 6 12 10 132 10 320 l0 301 40 0 40 0 0 -81 c0 -88 10
-119 40 -119 30 0 40 31 40 119 l0 81 40 0 40 0 0 -57 c0 -109 10 -126 157
-275 128 -129 135 -138 130 -168 -8 -37 11 -87 43 -115 16 -14 36 -20 70 -20
40 0 54 5 79 29 36 35 46 74 31 121 -17 52 -53 75 -114 75 l-52 0 -132 133
-132 134 0 70 0 71 65 4 c74 5 108 26 89 56 -10 16 -51 17 -505 22 -451 5
-496 7 -520 23 -14 9 -31 29 -37 43 -9 18 -12 164 -12 507 0 486 -1 507 -34
507 -6 0 -18 -4 -26 -10z m-430 -170 c22 -40 -26 -80 -58 -48 -25 25 -6 68 30
68 9 0 22 -9 28 -20z m-76 -1002 c16 -26 -4 -53 -40 -53 -25 0 -30 4 -32 29
-6 46 47 63 72 24z m830 -391 c36 -26 -4 -84 -41 -61 -25 16 -28 45 -7 61 10
7 21 13 24 13 3 0 14 -6 24 -13z m1006 -82 c7 -8 10 -25 6 -40 -11 -41 -76
-29 -76 15 0 36 47 53 70 25z"/>
<path d="M1365 2026 c-49 -21 -85 -71 -85 -116 0 -31 -4 -40 -21 -45 -40 -13
-98 -76 -110 -118 -12 -44 -5 -100 16 -130 11 -16 10 -25 -6 -60 -33 -74 -19
-150 40 -212 16 -16 34 -46 40 -67 34 -106 177 -152 266 -84 l32 25 36 -24
c76 -52 171 -42 231 25 20 22 36 47 36 55 0 8 20 37 44 64 60 67 69 120 34
191 l-25 50 23 47 c28 54 30 87 9 135 -15 37 -71 92 -103 102 -14 5 -21 19
-25 52 -5 51 -34 89 -84 110 -44 19 -76 18 -131 -6 l-47 -20 -40 20 c-45 23
-87 25 -130 6z m111 -81 c12 -8 24 -27 27 -43 6 -31 27 -45 53 -35 8 3 18 19
21 35 11 57 86 78 130 36 35 -32 29 -52 -19 -68 -32 -11 -44 -21 -46 -39 -5
-33 14 -41 79 -34 44 4 63 2 87 -12 61 -37 68 -97 17 -154 -19 -21 -35 -45
-35 -54 0 -8 16 -31 35 -50 37 -37 46 -80 23 -116 -11 -19 -14 -18 -50 14 -46
42 -84 54 -105 32 -21 -21 -11 -43 32 -68 106 -63 6 -192 -104 -134 -16 8 -31
22 -35 30 -3 9 -6 82 -6 161 0 130 2 146 20 164 11 11 32 22 47 25 58 12 78
40 52 71 -13 16 -39 15 -96 -2 -19 -5 -23 -2 -23 14 0 35 -11 52 -34 52 -40 0
-46 -18 -46 -131 l0 -107 -30 11 c-25 9 -33 9 -46 -5 -19 -19 -11 -54 15 -63
46 -14 61 -43 61 -116 0 -63 -3 -72 -26 -94 -56 -51 -164 -18 -164 50 0 15 7
39 16 55 31 51 -9 90 -50 51 l-24 -22 -16 22 c-41 59 -5 141 75 173 35 14 40
20 37 44 -3 28 -15 31 -98 20 -21 -2 -26 2 -28 26 -7 60 42 116 101 116 45 0
54 26 32 96 -15 48 72 84 121 49z"/>
</g>
</svg>
